<svg width="42" height="39" viewBox="0 0 42 39" fill="none" xmlns="http://www.w3.org/2000/svg">
<path d="M38.9934 22.8452C35.4066 25.0838 33.1703 28.9605 33.023 33.1869C32.9218 36.102 29.802 37.9034 27.2275 36.5322C23.4958 34.5467 19.0186 34.5467 15.2868 36.5322C12.7123 37.9011 9.59255 36.102 9.49132 33.1869C9.34407 28.9605 7.10778 25.0861 3.52097 22.8452C1.0477 21.3015 1.0477 17.6985 3.52097 16.1548C7.10778 13.9162 9.34407 10.0395 9.49132 5.81305C9.59255 2.89805 12.7123 1.09659 15.2868 2.46781C19.0186 4.45333 23.4958 4.45333 27.2275 2.46781C29.802 1.09889 32.9218 2.89805 33.023 5.81305C33.1703 10.0395 35.4066 13.9139 38.9934 16.1548C41.4666 17.6985 41.4666 21.3015 38.9934 22.8452Z" stroke="#262525" stroke-width="2" stroke-miterlimit="10" stroke-linecap="round" stroke-linejoin="round"/>
</svg>
