<svg width="37" height="37" viewBox="0 0 37 37" fill="none" xmlns="http://www.w3.org/2000/svg">
<path d="M1 36C3.86225 33.6239 7.45853 32.3132 11.1787 32.2917L18.0543 32.2488C25.8737 32.2011 32.2011 25.8737 32.2488 18.0543L32.2917 11.1787C32.3155 7.45853 33.6263 3.86225 36 1" stroke="#262525" stroke-width="2" stroke-miterlimit="10" stroke-linecap="round" stroke-linejoin="round"/>
<path d="M25.8021 13.1973C27.8755 16.7244 27.4013 21.336 24.3698 24.3698C21.3407 27.3989 16.7244 27.8755 13.1973 25.8021" stroke="#262525" stroke-width="2" stroke-miterlimit="10" stroke-linecap="round" stroke-linejoin="round"/>
<path d="M10.0319 32.3084C6.98139 26.0953 8.04192 18.3761 13.2087 13.2069C18.3756 8.03764 26.0948 6.98187 32.3103 10.03" stroke="#262525" stroke-width="2" stroke-miterlimit="10" stroke-linecap="round" stroke-linejoin="round"/>
<path d="M24.3699 24.3699L2.22266 2.22266" stroke="#262525" stroke-width="2" stroke-miterlimit="10" stroke-linecap="round" stroke-linejoin="round"/>
<path d="M17.4648 27.0583V17.4658H27.0573" stroke="#262525" stroke-width="2" stroke-miterlimit="10" stroke-linecap="round" stroke-linejoin="round"/>
</svg>
