<svg fill="none" height="37" viewBox="0 0 41 37" width="41" xmlns="http://www.w3.org/2000/svg"><g stroke="#262525" stroke-linecap="round" stroke-linejoin="round" stroke-miterlimit="10" stroke-width="2"><path d="m1.33398 4.15283h7.07916c1.01689 0 1.84056.82364 1.84056 1.84054v7.07913"/><path d="m26.2442 35.0303c-6.1381 2.1327-13.2265.7477-18.12923-4.1573-6.83298-6.833-6.83298-17.913 0-24.74826l1.00999-1.00999"/><path d="m39.6443 32.8469h-7.0792c-1.0169 0-1.8405-.8236-1.8405-1.8405v-7.0792"/><path d="m14.7324 1.9697c6.1382-2.132717 13.2266-.74771 18.1293 4.15731 6.833 6.83299 6.833 17.91299 0 24.74829l-1.01 1.01"/><path d="m20.2891 1.00098v11.00642c0 2.319 1.8796 4.1987 4.1987 4.1987s4.1987-1.8797 4.1987-4.1987v-1.1964c0-1.8014 1.4609-3.26232 3.2623-3.26232h2.1926"/><path d="m3.01953 17.4761h6.03005c1.50692 0 2.72632 1.2216 2.72632 2.7263v.046c0 2.2523 1.8267 4.0791 4.0791 4.0791 3.1703 0 5.7378 2.5698 5.7378 5.7378v5.8943"/></g></svg>